HIERARCHY
ROOT hips
{
  OFFSET 0 10.6860622 2.3727825e-15
  CHANNELS 6 Xposition Yposition Zposition Yrotation Xrotation Zrotation
  JOINT leftUpperLeg
  {
    OFFSET 0.6642549969 -0.9402397400000004 0
    CHANNELS 3 Yrotation Xrotation Zrotation
    JOINT leftLowerLeg
    {
      OFFSET 0 -3.997221335632195 0
      CHANNELS 3 Yrotation Xrotation Zrotation
      JOINT leftFoot
      {
        OFFSET -0.13777839790000004 -4.6145792000000005 -0.22186036399999998
        CHANNELS 3 Yrotation Xrotation Zrotation
        JOINT leftToes
        {
          OFFSET -0.03777410834999995 -0.9130806927000008 0.85230013
          CHANNELS 3 Yrotation Xrotation Zrotation
          End Site
          {
            OFFSET -0.03777410834999995 -0.9130806927000008 0.85230013
          }
        }
      }
    }
  }
  JOINT rightUpperLeg
  {
    OFFSET -0.6642778626 -0.9402397400000004 0
    CHANNELS 3 Yrotation Xrotation Zrotation
    JOINT rightLowerLeg
    {
      OFFSET 0 -3.997221452859387 0
      CHANNELS 3 Yrotation Xrotation Zrotation
      JOINT rightFoot
      {
        OFFSET 0.1377926176 -4.6145792000000005 -0.22185782299999995
        CHANNELS 3 Yrotation Xrotation Zrotation
        JOINT rightToes
        {
          OFFSET 0.037780746850000047 -0.9130806927000008 0.85230167
          CHANNELS 3 Yrotation Xrotation Zrotation
          End Site
          {
            OFFSET 0.037780746850000047 -0.9130806927000008 0.85230167
          }
        }
      }
    }
  }
  JOINT spine
  {
    OFFSET 0 0.13988381660000015 0
    CHANNELS 3 Yrotation Xrotation Zrotation
    JOINT chest
    {
      OFFSET 0 0.6191039003973773 0
      CHANNELS 3 Yrotation Xrotation Zrotation
      JOINT upperChest
      {
        OFFSET 0 0.9855186130586943 0
        CHANNELS 3 Yrotation Xrotation Zrotation
        JOINT leftShoulder
        {
          OFFSET 0.1807663869 1.5087829790000005 0
          CHANNELS 3 Yrotation Xrotation Zrotation
          JOINT leftUpperArm
          {
            OFFSET 0.5985063006419806 0 0
            CHANNELS 3 Yrotation Xrotation Zrotation
            JOINT leftLowerArm
            {
              OFFSET 2.2993332369501065 0 0
              CHANNELS 3 Yrotation Xrotation Zrotation
              JOINT leftHand
              {
                OFFSET 2.395047042602395 0 0
                CHANNELS 3 Yrotation Xrotation Zrotation
                JOINT leftIndexProximal
                {
                  OFFSET 0.5766295810000004 0.04556643899499946 0.17265095988184
                  CHANNELS 3 Yrotation Xrotation Zrotation
                  JOINT leftIndexIntermediate
                  {
                    OFFSET 0.2957229000000008 -0.019352197700001517 -0.007932640616999987
                    CHANNELS 3 Yrotation Xrotation Zrotation
                    JOINT leftIndexDistal
                    {
                      OFFSET 0.19008243099999922 -0.012484908149998475 -0.002786250786000012
                      CHANNELS 3 Yrotation Xrotation Zrotation
                      End Site
                      {
                        OFFSET 0.19008243099999922 -0.012484908149998475 -0.002786250786000012
                      }
                    }
                  }
                }
                JOINT leftMiddleProximal
                {
                  OFFSET 0.5834975091000001 0.0524350405149987 0.02204081888183999
                  CHANNELS 3 Yrotation Xrotation Zrotation
                  JOINT leftMiddleIntermediate
                  {
                    OFFSET 0.33880573540000003 -0.019871473270000717 -0.00000971183179999946
                    CHANNELS 3 Yrotation Xrotation Zrotation
                    JOINT leftMiddleDistal
                    {
                      OFFSET 0.20676022730000088 -0.012221336379999448 0.0001471936708000235
                      CHANNELS 3 Yrotation Xrotation Zrotation
                      End Site
                      {
                        OFFSET 0.20676022730000088 -0.012221336379999448 0.0001471936708000235
                      }
                    }
                  }
                }
                JOINT leftLittleProximal
                {
                  OFFSET 0.5344154683999995 -0.012880921405001189 -0.24414037221816004
                  CHANNELS 3 Yrotation Xrotation Zrotation
                  JOINT leftLittleIntermediate
                  {
                    OFFSET 0.21758961730000093 -0.011650919939999227 0.011893592810000034
                    CHANNELS 3 Yrotation Xrotation Zrotation
                    JOINT leftLittleDistal
                    {
                      OFFSET 0.1475273964999999 -0.008152365682999818 0.006001092492999946
                      CHANNELS 3 Yrotation Xrotation Zrotation
                      End Site
                      {
                        OFFSET 0.1475273964999999 -0.008152365682999818 0.006001092492999946
                      }
                    }
                  }
                }
                JOINT leftRingProximal
                {
                  OFFSET 0.5799399463000003 0.026911854694997794 -0.12150566991816003
                  CHANNELS 3 Yrotation Xrotation Zrotation
                  JOINT leftRingIntermediate
                  {
                    OFFSET 0.26167887460000006 -0.013480186499999602 0.010996293000000053
                    CHANNELS 3 Yrotation Xrotation Zrotation
                    JOINT leftRingDistal
                    {
                      OFFSET 0.17667108799999987 -0.008990287899999228 0.0055541023999999065
                      CHANNELS 3 Yrotation Xrotation Zrotation
                      End Site
                      {
                        OFFSET 0.17667108799999987 -0.008990287899999228 0.0055541023999999065
                      }
                    }
                  }
                }
                JOINT leftThumbProximal
                {
                  OFFSET 0.11018806699999972 -0.09448718900500053 0.17047963138184
                  CHANNELS 3 Yrotation Xrotation Zrotation
                  JOINT leftThumbIntermediate
                  {
                    OFFSET 0.31062601459999983 -0.08126270900000132 0.15443142000000007
                    CHANNELS 3 Yrotation Xrotation Zrotation
                    JOINT leftThumbDistal
                    {
                      OFFSET 0.21627175790000086 -0.08833193599999878 0.018771167799999988
                      CHANNELS 3 Yrotation Xrotation Zrotation
                      End Site
                      {
                        OFFSET 0.21627175790000086 -0.08833193599999878 0.018771167799999988
                      }
                    }
                  }
                }
              }
            }
          }
        }
        JOINT neck
        {
          OFFSET 0 1.5463305265074576 0
          CHANNELS 3 Yrotation Xrotation Zrotation
          JOINT head
          {
            OFFSET 0 0.8456443600000344 0
            CHANNELS 3 Yrotation Xrotation Zrotation
            JOINT leftEye
            {
              OFFSET 0.30408573140000006 0.5104519199999995 0.1276382305
              CHANNELS 3 Yrotation Xrotation Zrotation
              End Site
              {
                OFFSET 0.30408573140000006 0.5104519199999995 0.1276382305
              }
            }
            JOINT rightEye
            {
              OFFSET -0.30409491089999996 0.5104519199999995 0.1276379445
              CHANNELS 3 Yrotation Xrotation Zrotation
              End Site
              {
                OFFSET -0.30409491089999996 0.5104519199999995 0.1276379445
              }
            }
            JOINT jaw
            {
              OFFSET -3.155239131000001e-7 -0.11984121820000082 0.60178107
              CHANNELS 3 Yrotation Xrotation Zrotation
              End Site
              {
                OFFSET -3.155239131000001e-7 -0.11984121820000082 0.60178107
              }
            }
          }
        }
        JOINT rightShoulder
        {
          OFFSET -0.1807303465 1.5087829790000005 0
          CHANNELS 3 Yrotation Xrotation Zrotation
          JOINT rightUpperArm
          {
            OFFSET -0.5985063796536958 0 0
            CHANNELS 3 Yrotation Xrotation Zrotation
            JOINT rightLowerArm
            {
              OFFSET -2.2993322059002854 0 0
              CHANNELS 3 Yrotation Xrotation Zrotation
              JOINT rightHand
              {
                OFFSET -2.395045314457259 0 0
                CHANNELS 3 Yrotation Xrotation Zrotation
                JOINT rightIndexProximal
                {
                  OFFSET -0.5764487688300002 0.0441371204405987 0.17361932004999997
                  CHANNELS 3 Yrotation Xrotation Zrotation
                  JOINT rightIndexIntermediate
                  {
                    OFFSET -0.29573011380000047 -0.01934826376999843 -0.007698921482999974
                    CHANNELS 3 Yrotation Xrotation Zrotation
                    JOINT rightIndexDistal
                    {
                      OFFSET -0.19008373999999884 -0.012503266380000655 -0.0026365778999999897
                      CHANNELS 3 Yrotation Xrotation Zrotation
                      End Site
                      {
                        OFFSET -0.19008373999999884 -0.012503266380000655 -0.0026365778999999897
                      }
                    }
                  }
                }
                JOINT rightMiddleProximal
                {
                  OFFSET -0.5834852037300005 0.05211639405060153 0.02307162440000001
                  CHANNELS 3 Yrotation Xrotation Zrotation
                  JOINT rightMiddleIntermediate
                  {
                    OFFSET -0.33880114510000003 -0.019952774050000954 0.0002455003561999819
                    CHANNELS 3 Yrotation Xrotation Zrotation
                    JOINT rightMiddleDistal
                    {
                      OFFSET -0.20675694929999955 -0.012273788999999091 0.00030209124000002766
                      CHANNELS 3 Yrotation Xrotation Zrotation
                      End Site
                      {
                        OFFSET -0.20675694929999955 -0.012273788999999091 0.00030209124000002766
                      }
                    }
                  }
                }
                JOINT rightLittleProximal
                {
                  OFFSET -0.5346811737299992 -0.011214256288399227 -0.24363941305000003
                  CHANNELS 3 Yrotation Xrotation Zrotation
                  JOINT rightLittleIntermediate
                  {
                    OFFSET -0.21757715980000092 -0.011771559690000988 0.01201554387
                    CHANNELS 3 Yrotation Xrotation Zrotation
                    JOINT rightLittleDistal
                    {
                      OFFSET -0.1475201849000004 -0.00822055339600003 0.006082065407000015
                      CHANNELS 3 Yrotation Xrotation Zrotation
                      End Site
                      {
                        OFFSET -0.1475201849000004 -0.00822055339600003 0.006082065407000015
                      }
                    }
                  }
                }
                JOINT rightRingProximal
                {
                  OFFSET -0.5800810755299999 0.027657985680600072 -0.12066365025000003
                  CHANNELS 3 Yrotation Xrotation Zrotation
                  JOINT rightRingIntermediate
                  {
                    OFFSET -0.26166445029999974 -0.013623118409999302 0.011164098990000045
                    CHANNELS 3 Yrotation Xrotation Zrotation
                    JOINT rightRingDistal
                    {
                      OFFSET -0.17666387530000027 -0.009072900100000503 0.005668185599999959
                      CHANNELS 3 Yrotation Xrotation Zrotation
                      End Site
                      {
                        OFFSET -0.17666387530000027 -0.009072900100000503 0.005668185599999959
                      }
                    }
                  }
                }
                JOINT rightThumbProximal
                {
                  OFFSET -0.10997596379000074 -0.09577489355940072 0.16989765924999997
                  CHANNELS 3 Yrotation Xrotation Zrotation
                  JOINT rightThumbIntermediate
                  {
                    OFFSET -0.31036620999999986 -0.08229339117999834 0.15440884469999996
                    CHANNELS 3 Yrotation Xrotation Zrotation
                    JOINT rightThumbDistal
                    {
                      OFFSET -0.21631306399999906 -0.08825326400000111 0.018656797720000014
                      CHANNELS 3 Yrotation Xrotation Zrotation
                      End Site
                      {
                        OFFSET -0.21631306399999906 -0.08825326400000111 0.018656797720000014
                      }
                    }
                  }
                }
              }
            }
          }
        }
      }
    }
  }
}
MOTION
Frames: 6
Frame Time: 0.03333333333333333
-3.2577751806552744 -8.02713482812956 -0.15075835432306506 0 0 0 0.0022780642284908914 -51.0568970705344 0.26185200494066124 176.7559461037151 38.27210810329183 178.87286544911368 14.466493318406515 55.24558963339688 15.181634884098214 0 0 0 -0.04194615054230702 -51.05634831002447 -0.3088662395180991 -176.7697031228768 38.25726304723376 -178.97500882711446 -14.713499010699104 55.78771401461647 -15.409492470148573 0 0 0 -0.10642836607112936 73.41743975060432 -0.08755884519677008 -0.09637144191510223 40.60078438472275 0.15586222247152345 0 0 0 -112.50359550301671 -47.620937556642815 120.34938588501697 -30.90426449828739 -4.8520984053369745 -5.137838881602902 -15.959814125015924 -0.4558433632106902 -5.958026360327077 -9.08304197850802 -14.425842732568936 37.34510954827643 0 0 0 0 0 0 0 0 0 0 0 0 0 0 0 0 0 0 0 0 0 0 0 0 0 0 0 0 0 0 0 0 0 0 0 0 0 0 0 0 0 0 0 0 0 1.7037452026215838 -12.912238378201941 6.779329842523004 0.24588120950513578 -35.37865511371077 8.592579479889498 0 0 0 0 0 0 0 0 0 34.89992126146542 -39.103215847220596 -28.981871468970443 30.60086073656739 -3.5638235096268702 16.67988591115753 8.113768341131678 -0.268190491533865 8.039295136151939 -24.322195555301874 -25.660741422040317 -33.58401453985446 0 0 0 0 0 0 0 0 0 0 0 0 0 0 0 0 0 0 0 0 0 0 0 0 0 0 0 0 0 0 0 0 0 0 0 0 0 0 0 0 0 0 0 0 0
-3.2577751806552744 -8.02713482812956 -0.15075835432306506 0 0 0 0.0022780642284908914 -51.0568970705344 0.26185200494066124 176.7559461037151 38.27210810329183 178.87286544911368 14.466493318406515 55.24558963339688 15.181634884098214 0 0 0 -0.04194615054230702 -51.05634831002447 -0.3088662395180991 -176.7697031228768 38.25726304723376 -178.97500882711446 -14.713499010699104 55.78771401461647 -15.409492470148573 0 0 0 -0.10642836607112936 73.41743975060432 -0.08755884519677008 -0.09637144191510223 40.60078438472275 0.15586222247152345 0 0 0 -112.47927102275644 -47.59504825818237 120.28240634713174 -30.96155230309049 -4.856784074484235 -5.220340585501048 -15.959814125015924 -0.4558433632106902 -5.958026360327077 -9.08304197850802 -14.425842732568936 37.34510954827643 0 0 0 0 0 0 0 0 0 0 0 0 0 0 0 0 0 0 0 0 0 0 0 0 0 0 0 0 0 0 0 0 0 0 0 0 0 0 0 0 0 0 0 0 0 1.702528099227791 -12.73467018716794 6.7847576424348395 0.24766500025780955 -35.33816632868423 8.525949721859945 0 0 0 0 0 0 0 0 0 34.79933050341851 -39.18622925134568 -29.02815544005588 30.686670147952437 -3.5893397814071712 16.707438302999112 8.170134653840428 -0.27596429495873154 8.073803399834826 -24.322195555301874 -25.660741422040317 -33.58401453985446 0 0 0 0 0 0 0 0 0 0 0 0 0 0 0 0 0 0 0 0 0 0 0 0 0 0 0 0 0 0 0 0 0 0 0 0 0 0 0 0 0 0 0 0 0
-3.2577751806552744 -8.02713482812956 -0.15075835432306506 0 0 0 0.0022780642284908914 -51.0568970705344 0.26185200494066124 176.7559461037151 38.27210810329183 178.87286544911368 14.466493318406515 55.24558963339688 15.181634884098214 0 0 0 -0.04194615054230702 -51.05634831002447 -0.3088662395180991 -176.7697031228768 38.25726304723376 -178.97500882711446 -14.713499010699104 55.78771401461647 -15.409492470148573 0 0 0 -0.10642836607112936 73.41743975060432 -0.08755884519677008 -0.09637144191510223 40.60078438472275 0.15586222247152345 0 0 0 -112.45499939322849 -47.56914645404484 120.21546869510712 -31.018849135842732 -4.861553319674392 -5.302861388183245 -15.959814125015924 -0.4558433632106902 -5.958026360327077 -9.08304197850802 -14.425842732568936 37.34510954827643 0 0 0 0 0 0 0 0 0 0 0 0 0 0 0 0 0 0 0 0 0 0 0 0 0 0 0 0 0 0 0 0 0 0 0 0 0 0 0 0 0 0 0 0 0 1.7013284950332777 -12.557018099579164 6.7901803055180405 0.24939070457495938 -35.29766853011698 8.459349767308481 0 0 0 0 0 0 0 0 0 34.6986366042597 -39.26935405072255 -29.07433674416118 30.772490119374716 -3.614903603310364 16.734957823752648 8.226502530379427 -0.2837731619740574 8.108308669453127 -24.322195555301874 -25.660741422040317 -33.58401453985446 0 0 0 0 0 0 0 0 0 0 0 0 0 0 0 0 0 0 0 0 0 0 0 0 0 0 0 0 0 0 0 0 0 0 0 0 0 0 0 0 0 0 0 0 0
-3.2577751806552744 -8.02713482812956 -0.15075835432306506 0 0 0 0.0022780642284908914 -51.0568970705344 0.26185200494066124 176.7559461037151 38.27210810329183 178.87286544911368 14.466493318406515 55.24558963339688 15.181634884098214 0 0 0 -0.04194615054230702 -51.05634831002447 -0.3088662395180991 -176.7697031228768 38.25726304723376 -178.97500882711446 -14.713499010699104 55.78771401461647 -15.409492470148573 0 0 0 -0.10642836607112936 73.41743975060432 -0.08755884519677008 -0.09637144191510223 40.60078438472275 0.15586222247152345 0 0 0 -112.43078602399164 -47.54322709834269 120.14858116974055 -31.076140968999283 -4.866404428989849 -5.385377709398041 -15.959814125015924 -0.4558433632106902 -5.958026360327077 -9.08304197850802 -14.425842732568936 37.34510954827643 0 0 0 0 0 0 0 0 0 0 0 0 0 0 0 0 0 0 0 0 0 0 0 0 0 0 0 0 0 0 0 0 0 0 0 0 0 0 0 0 0 0 0 0 0 1.700146844119567 -12.379366245671248 6.795595309358499 0.2510579091094379 -35.25717007581672 8.392784047561552 0 0 0 0 0 0 0 0 0 34.59790862552589 -39.352546652183094 -29.120381842848847 30.858299204148718 -3.640508354307729 16.762439583695798 8.282865627974928 -0.2916159988832736 8.142806732259231 -24.322195555301874 -25.660741422040317 -33.58401453985446 0 0 0 0 0 0 0 0 0 0 0 0 0 0 0 0 0 0 0 0 0 0 0 0 0 0 0 0 0 0 0 0 0 0 0 0 0 0 0 0 0 0 0 0 0
-3.2577751806552744 -8.02713482812956 -0.15075835432306506 0 0 0 0.0022780642284908914 -51.0568970705344 0.26185200494066124 176.7559461037151 38.27210810329183 178.87286544911368 14.466493318406515 55.24558963339688 15.181634884098214 0 0 0 -0.04194615054230702 -51.05634831002447 -0.3088662395180991 -176.7697031228768 38.25726304723376 -178.97500882711446 -14.713499010699104 55.78771401461647 -15.409492470148573 0 0 0 -0.10642836607112936 73.41743975060432 -0.08755884519677008 -0.09637144191510223 40.60078438472275 0.15586222247152345 0 0 0 -112.40662809394082 -47.51728515515758 120.08174145342002 -31.133426716661507 -4.871338261103647 -5.46789007103062 -15.959814125015924 -0.4558433632106902 -5.958026360327077 -9.08304197850802 -14.425842732568936 37.34510954827643 0 0 0 0 0 0 0 0 0 0 0 0 0 0 0 0 0 0 0 0 0 0 0 0 0 0 0 0 0 0 0 0 0 0 0 0 0 0 0 0 0 0 0 0 0 1.6989831848148902 -12.201713792302755 6.8010032390041815 0.2526667041265305 -35.216666766388904 8.326252940688077 0 0 0 0 0 0 0 0 0 34.49715024585227 -39.43580305192646 -29.166292621512458 30.94409940871156 -3.66615447075424 16.78988425929497 8.339224002544777 -0.2994927258610085 8.177295912273268 -24.322195555301874 -25.660741422040317 -33.58401453985446 0 0 0 0 0 0 0 0 0 0 0 0 0 0 0 0 0 0 0 0 0 0 0 0 0 0 0 0 0 0 0 0 0 0 0 0 0 0 0 0 0 0 0 0 0
-3.2577751806552744 -8.02713482812956 -0.15075835432306506 0 0 0 0.0022780642284908914 -51.0568970705344 0.26185200494066124 176.7559461037151 38.27210810329183 178.87286544911368 14.466493318406515 55.24558963339688 15.181634884098214 0 0 0 -0.04194615054230702 -51.05634831002447 -0.3088662395180991 -176.7697031228768 38.25726304723376 -178.97500882711446 -14.713499010699104 55.78771401461647 -15.409492470148573 0 0 0 -0.10642836607112936 73.41743975060432 -0.08755884519677008 -0.09637144191510223 40.60078438472275 0.15586222247152345 0 0 0 -112.38252401270763 -47.49132065266835 120.01495126343784 -31.19071819693375 -4.876354389435212 -5.550420857482165 -15.959814125015924 -0.4558433632106902 -5.958026360327077 -9.08304197850802 -14.425842732568936 37.34510954827643 0 0 0 0 0 0 0 0 0 0 0 0 0 0 0 0 0 0 0 0 0 0 0 0 0 0 0 0 0 0 0 0 0 0 0 0 0 0 0 0 0 0 0 0 0 1.6978372460140687 -12.02398308997327 6.806406115947792 0.2542174058003964 -35.17616694502643 8.259751553176889 0 0 0 0 0 0 0 0 0 34.39629300262366 -39.51917235264084 -29.21210098936429 31.02991094803353 -3.6918483779533617 16.817297775929 8.39558446712571 -0.30740443704146 8.21178347222426 -24.322195555301874 -25.660741422040317 -33.58401453985446 0 0 0 0 0 0 0 0 0 0 0 0 0 0 0 0 0 0 0 0 0 0 0 0 0 0 0 0 0 0 0 0 0 0 0 0 0 0 0 0 0 0 0 0 0
